<svg width="144" height="40" viewBox="0 0 144 40" fill="none" xmlns="http://www.w3.org/2000/svg">
<path d="M20.4035 31.7389C17.7606 29.2276 16.305 25.7397 16.305 21.9166C16.305 20.3318 16.5588 18.8068 17.04 17.3848C17.04 17.3729 17.04 17.3585 17.04 17.3465H17.0543C17.5906 15.7761 18.4045 14.3302 19.4794 13.0733L17.2123 11.5771C18.8139 10.4137 19.86 8.52725 19.86 6.39425C19.86 3.70825 18.2082 1.41007 15.8669 0.459674C15.1272 0.160432 9.90365 17.3441 9.90365 17.3441C9.88449 17.7391 9.8821 18.2538 9.8821 18.8739C9.8821 20.5807 14.0715 20.3222 13.8465 21.8304C13.5113 24.0855 13.4419 25.7971 11.5052 31.2146C10.1981 34.8702 1.47219 31.2146 0.849767 33.0101C0.416464 34.2597 0.186646 35.6578 0.186646 37.1659C0.186646 37.3263 0.53616 39.7466 13.473 39.7466C26.4099 39.7466 26.7594 37.3287 26.7594 37.1659C26.7594 36.4478 26.7043 35.7535 26.6038 35.088C24.2433 34.4943 22.1127 33.3572 20.4083 31.7365L20.4035 31.7389Z" fill="#5D9948"/>
<path d="M13.2336 30.968C13.9542 27.6907 14.591 24.1956 14.9788 22.1033C15.4624 19.4915 11.5052 19.0247 9.87971 18.7853C9.8055 21.0164 9.18307 24.6361 3.88529 28.6818C2.45611 29.7735 1.3908 31.3319 0.777954 33.2183C2.20714 33.9174 4.1175 34.3339 7.05965 34.3339C8.94847 34.3339 12.4436 34.5613 13.2312 30.968H13.2336Z" fill="#81B64C"/>
<path d="M16.0131 17.3489C16.6379 15.7187 16.5565 14.6246 16.5565 14.6246L13.9447 11.5819C16.7217 10.3945 18.3926 8.16338 18.3926 5.56356C18.3926 3.48802 17.4063 1.64468 15.8766 0.476441C15.1321 0.172411 14.3181 0.00244141 13.4659 0.00244141C9.93724 0.00244141 7.07887 2.86799 7.07887 6.40144C7.07887 8.53444 8.12263 10.4209 9.72657 11.5843L5.11584 14.627C5.11584 15.6492 5.35763 16.468 5.83403 17.3513H16.0131V17.3489Z" fill="#81B64C"/>
<path d="M9.70732 5.95613C8.0938 5.76462 9.64986 0.766072 13.1019 1.30231C16.7862 1.87447 11.4046 6.15722 9.70732 5.95613Z" fill="#B2E068"/>
<path d="M54.4645 23.2331V32.3038C54.4645 32.6245 54.2036 32.8855 53.8828 32.8855H50.165C49.8442 32.8855 49.5833 32.6245 49.5833 32.3038V23.9872C49.5833 21.2605 48.8076 20.0085 46.9092 20.0085C44.6589 20.0085 43.5625 21.4496 43.5625 24.5522V32.3062C43.5625 32.6269 43.3016 32.8879 42.9808 32.8879H39.263C38.9422 32.8879 38.6813 32.6269 38.6813 32.3062V11.1557C38.6813 10.8349 38.9422 10.574 39.263 10.574H42.9808C43.3016 10.574 43.5625 10.8349 43.5625 11.1557V17.4278C44.8313 16.1926 46.0187 15.776 48.178 15.776C52.152 15.776 54.4669 18.0957 54.4669 23.2331H54.4645Z" fill="white"/>
<path d="M64.8445 15.776C59.7143 15.776 56.5543 19.4124 56.5543 24.4564C56.5543 28.8469 59.1015 33.1368 65.1677 33.1368C67.7699 33.1368 70.3338 32.7586 71.9617 31.8585C72.2107 31.722 72.3136 31.418 72.1939 31.1595L71.0185 28.6219C70.8868 28.3394 70.5469 28.2365 70.2716 28.3801C68.5887 29.2611 67.6119 29.4382 65.4358 29.4382C63.2597 29.4382 61.4691 27.5949 61.3494 25.8353H72.3926C72.632 25.8353 72.8331 25.651 72.8547 25.4116C72.8834 25.1004 72.9121 24.7748 72.9121 24.5187C72.9121 19.0964 69.7832 15.776 64.8397 15.776H64.8445ZM61.2895 22.9842C61.4308 20.8272 62.7235 19.4746 64.8757 19.4746C67.0278 19.4746 68.1937 20.8679 68.3612 22.9842H61.2871H61.2895Z" fill="white"/>
<path d="M90.2562 31.1595L91.4316 28.6219C91.5633 28.3394 91.9056 28.2317 92.1785 28.3801C93.6604 29.1868 95.2476 29.4382 97.0933 29.4382C99.346 29.4382 100.191 28.8421 100.191 27.9037C100.191 25.1459 90.0216 27.9659 90.0216 21.2294C90.0216 18.0335 92.8991 15.776 97.8115 15.776C99.9158 15.776 102.068 16.262 103.669 17.0496C103.928 17.1765 104.033 17.4925 103.911 17.7558L102.736 20.267C102.609 20.5399 102.283 20.6501 102.013 20.5184C100.517 19.7763 99.1928 19.477 97.8091 19.477C95.6186 19.477 94.6802 20.1665 94.6802 21.0427C94.6802 23.925 104.85 21.136 104.85 27.7792C104.85 30.9129 101.941 33.1368 96.9018 33.1368C94.2996 33.1368 92.1091 32.7586 90.4836 31.8585C90.2347 31.722 90.1317 31.418 90.2514 31.1595H90.2562Z" fill="white"/>
<path d="M105.08 31.8083C105.08 31.0374 105.676 30.4988 106.387 30.4988C107.098 30.4988 107.655 31.0374 107.655 31.8083C107.655 32.5791 107.079 33.1369 106.387 33.1369C105.695 33.1369 105.08 32.5791 105.08 31.8083Z" fill="white"/>
<path d="M117.363 27.547C117.363 24.2889 119.63 21.9763 122.708 21.9763C125.787 21.9763 128.035 24.2865 128.035 27.547C128.035 30.8076 125.789 33.1369 122.708 33.1369C119.627 33.1369 117.363 30.8052 117.363 27.547ZM126.156 27.547C126.156 25.2153 124.683 23.7095 122.708 23.7095C120.733 23.7095 119.242 25.2153 119.242 27.547C119.242 29.8787 120.733 31.4036 122.708 31.4036C124.683 31.4036 126.156 29.8763 126.156 27.547Z" fill="white"/>
<path d="M143.818 26.7212V32.6175C143.818 32.8353 143.641 33.0125 143.426 33.0125H142.236C142.018 33.0125 141.843 32.8353 141.843 32.6175V26.9462C141.843 24.8012 141.23 23.7479 139.48 23.7479C137.838 23.7479 137.584 25.0071 137.584 27.3795V32.6175C137.584 32.8353 137.407 33.0125 137.192 33.0125H136.002C135.784 33.0125 135.609 32.8353 135.609 32.6175V26.9462C135.609 24.8012 135.088 23.7479 133.354 23.7479C131.741 23.7479 131.351 25.0071 131.351 27.3795V32.6175C131.351 32.8353 131.173 33.0125 130.958 33.0125H129.768C129.55 33.0125 129.376 32.8353 129.376 32.6175V22.4719C129.376 22.2541 129.553 22.0769 129.768 22.0769H130.877C131.094 22.0769 131.269 22.2541 131.269 22.4719V23.0465C131.418 22.8143 132.011 21.974 133.661 21.974C135.135 21.974 136.043 22.4911 136.73 23.5516C136.73 23.5516 137.424 21.974 139.813 21.974C142.47 21.974 143.823 23.5013 143.823 26.7188L143.818 26.7212Z" fill="white"/>
<path d="M113.532 31.4036C111.385 31.4036 110.073 29.9194 110.073 27.547C110.073 25.1746 111.385 23.7095 113.532 23.7095C114.502 23.7095 115.39 24.0351 116.065 24.727C116.226 24.8921 116.506 24.77 116.506 24.5402V22.9961C116.506 22.8357 116.415 22.6897 116.274 22.6131C115.496 22.1918 114.569 21.9763 113.554 21.9763C110.188 21.9763 108.072 24.2865 108.072 27.547C108.072 30.8076 110.188 33.1369 113.554 33.1369C114.571 33.1369 115.498 32.9142 116.276 32.4881C116.417 32.4115 116.506 32.2679 116.506 32.1075V30.573C116.506 30.3431 116.226 30.221 116.065 30.3862C115.39 31.0781 114.502 31.4036 113.532 31.4036Z" fill="white"/>
<path d="M79.1771 21.014C79.1771 20.1115 80.1419 19.4028 82.3946 19.4028C83.8166 19.4028 85.1811 19.7117 86.718 20.4753C86.9957 20.6118 87.3309 20.4969 87.4602 20.2168L88.6691 17.6337C88.796 17.3632 88.6883 17.04 88.4201 16.9084C86.7731 16.0992 84.5587 15.5989 82.3946 15.5989C77.341 15.5989 74.3821 17.9186 74.3821 21.2079C74.3821 28.1383 84.8412 25.2369 84.8412 28.0737C84.8412 29.0408 83.9722 29.6537 81.6549 29.6537C79.7541 29.6537 78.1214 29.3951 76.5989 28.5645C76.3164 28.4112 75.9669 28.5214 75.8304 28.811L74.6191 31.4204C74.497 31.6861 74.6023 31.9974 74.8585 32.1386C76.5318 33.0651 78.7845 33.4553 81.461 33.4553C86.6414 33.4553 89.6339 31.1667 89.6339 27.9444C89.6339 21.1121 79.1747 23.9801 79.1747 21.014H79.1771Z" fill="white"/>
<path d="M30.7405 28.9379C26.642 28.9379 23.731 26.0556 23.731 21.9189C23.731 17.7821 26.6397 14.8998 30.7405 14.8998C32.445 14.8998 33.9388 15.4313 35.2123 16.4631C35.6289 16.8006 36.2489 16.5205 36.2489 15.9819V12.3263C36.2489 12.0367 36.0766 11.7733 35.8132 11.6536C34.2524 10.9474 32.4569 10.574 30.4939 10.574C23.6736 10.574 18.6056 15.3068 18.6056 21.9189C18.6056 28.5309 23.6736 33.2637 30.4628 33.2637C32.445 33.2637 34.25 32.8903 35.8156 32.1769C36.079 32.0572 36.2513 31.7962 36.2513 31.5042V27.8343C36.2513 27.298 35.6289 27.0179 35.2147 27.3579C33.9436 28.404 32.4473 28.9355 30.7429 28.9355L30.7405 28.9379Z" fill="white"/>
</svg>
