<svg width="280" height="140" viewBox="0 0 280 140" fill="none" xmlns="http://www.w3.org/2000/svg">
<g clip-path="url(#clip0_1640_19761)">
<g opacity="0.5">
<path opacity="0.5" d="M24.4735 160L-15 115.197L81.9594 92.6158L140.387 115.197L24.4735 160Z" fill="url(#paint0_linear_1640_19761)"/>
<path opacity="0.5" d="M198.815 92.6139L140.387 79.0056L179.445 69.9079L234.024 79.0056L198.815 92.6139Z" fill="#565352"/>
<path opacity="0.5" d="M81.9601 92.6139L46.7505 79.0056L101.33 69.9079L140.388 79.0056L81.9601 92.6139Z" fill="#565352"/>
<path opacity="0.5" d="M256.301 160L140.387 115.197L198.816 92.6158L295.774 115.197L256.301 160Z" fill="url(#paint1_linear_1640_19761)"/>
</g>
<path d="M139.546 76.9447C141.366 68.7905 142.932 60.1033 143.896 54.8966C145.11 48.4035 135.237 47.2459 131.184 46.6454C131.001 52.1925 129.454 61.1952 116.237 71.258C112.563 74.1378 109.86 78.0754 108.494 82.5396C112.056 84.2729 116.82 85.31 124.156 85.31C128.847 85.31 137.579 85.8748 139.546 76.9447Z" fill="#81B64C"/>
<path d="M164.042 71.258C147.409 58.5881 149.26 47.6156 149.048 43.0693H159.188C160.383 41.0103 161.011 38.6718 161.009 36.2913L149.478 28.7261C156.608 23.5818 158.213 13.6389 153.064 6.5173C151.308 4.08824 148.902 2.20433 146.123 1.0824C144.302 0.336587 131.256 43.0693 131.256 43.0693C131.207 44.051 131.195 45.3304 131.195 46.8705C131.195 51.1133 141.645 50.5077 141.086 54.2234C140.249 59.8311 140.079 64.0924 135.242 77.5624C131.984 86.6556 110.229 77.5624 108.676 82.0246C107.544 85.3542 106.978 88.8499 107.001 92.3665C107.001 92.7675 107.875 102.525 140.133 102.525C172.392 102.525 173.266 92.7675 173.266 92.3665C173.266 83.2249 169.849 75.7017 164.042 71.258Z" fill="#5D9948"/>
<path d="M146.475 43.0687C148.035 39.0189 147.834 36.297 147.834 36.297L141.323 28.7254C148.247 25.7727 152.416 20.2384 152.416 13.7581C152.412 11.3132 151.844 8.90215 150.756 6.71288C149.668 4.5236 148.088 2.61524 146.141 1.13656C137.973 -2.11826 128.71 1.85752 125.452 10.0182C122.766 16.7445 124.967 24.4341 130.807 28.7254L119.307 36.297C119.296 38.6745 119.914 41.0127 121.098 43.0744L146.475 43.0687Z" fill="#81B64C"/>
<path d="M139.223 3.16684C148.411 4.59154 134.975 15.237 130.728 14.7334C126.735 14.261 130.612 1.83329 139.223 3.16684Z" fill="#B2E068"/>
</g>
<defs>
<linearGradient id="paint0_linear_1640_19761" x1="140.876" y1="115.223" x2="123.387" y2="160.194" gradientUnits="userSpaceOnUse">
<stop stop-color="#565352"/>
<stop offset="1" stop-color="#565352" stop-opacity="0"/>
</linearGradient>
<linearGradient id="paint1_linear_1640_19761" x1="140.876" y1="115.223" x2="158.364" y2="160.194" gradientUnits="userSpaceOnUse">
<stop stop-color="#565352"/>
<stop offset="1" stop-color="#565352" stop-opacity="0"/>
</linearGradient>
<clipPath id="clip0_1640_19761">
<rect width="280" height="140" fill="white"/>
</clipPath>
</defs>
</svg>
