<svg width="360" height="160" viewBox="0 0 360 160" fill="none" xmlns="http://www.w3.org/2000/svg">
<g clip-path="url(#clip0_1622_14462)">
<g opacity="0.5">
<path opacity="0.5" d="M64.0389 160L24.5654 115.198L121.525 92.6158L179.953 115.198L64.0389 160Z" fill="url(#paint0_linear_1622_14462)"/>
<path opacity="0.5" d="M238.381 92.6139L179.953 79.0057L219.011 69.908L273.589 79.0057L238.381 92.6139Z" fill="#565352"/>
<path opacity="0.5" d="M121.525 92.6139L86.3159 79.0057L140.896 69.908L179.954 79.0057L121.525 92.6139Z" fill="#565352"/>
<path opacity="0.5" d="M295.866 160L179.953 115.198L238.381 92.6158L335.34 115.198L295.866 160Z" fill="url(#paint1_linear_1622_14462)"/>
</g>
<path d="M179.124 76.9447C180.944 68.7904 182.51 60.1032 183.475 54.8965C184.688 48.4035 174.816 47.2459 170.762 46.6454C170.58 52.1925 169.033 61.1952 155.816 71.258C152.141 74.1377 149.439 78.0754 148.073 82.5396C151.635 84.2728 156.398 85.3099 163.735 85.3099C168.426 85.3099 177.158 85.8747 179.124 76.9447Z" fill="#81B64C"/>
<path d="M203.621 71.258C186.988 58.5881 188.839 47.6156 188.627 43.0693H198.767C199.961 41.0103 200.589 38.6718 200.587 36.2913L189.057 28.7261C196.186 23.5818 197.792 13.6389 192.643 6.5173C190.887 4.08824 188.481 2.20433 185.701 1.0824C183.881 0.336587 170.834 43.0693 170.834 43.0693C170.786 44.051 170.774 45.3304 170.774 46.8705C170.774 51.1133 181.223 50.5077 180.665 54.2234C179.827 59.8311 179.658 64.0924 174.821 77.5624C171.563 86.6556 149.808 77.5624 148.254 82.0246C147.122 85.3542 146.556 88.8499 146.579 92.3665C146.579 92.7675 147.453 102.525 179.712 102.525C211.971 102.525 212.845 92.7675 212.845 92.3665C212.845 83.2249 209.428 75.7017 203.621 71.258Z" fill="#5D9948"/>
<path d="M186.053 43.0687C187.613 39.0189 187.413 36.297 187.413 36.297L180.901 28.7254C187.825 25.7727 191.994 20.2384 191.994 13.7581C191.991 11.3132 191.423 8.90215 190.334 6.71288C189.246 4.5236 187.667 2.61524 185.72 1.13656C177.552 -2.11826 168.289 1.85752 165.03 10.0182C162.345 16.7445 164.546 24.4341 170.385 28.7254L158.886 36.297C158.874 38.6745 159.492 41.0127 160.676 43.0744L186.053 43.0687Z" fill="#81B64C"/>
<path d="M178.802 3.16684C187.989 4.59154 174.554 15.237 170.306 14.7334C166.313 14.261 170.191 1.83329 178.802 3.16684Z" fill="#B2E068"/>
</g>
<defs>
<linearGradient id="paint0_linear_1622_14462" x1="180.441" y1="115.223" x2="162.952" y2="160.194" gradientUnits="userSpaceOnUse">
<stop stop-color="#565352"/>
<stop offset="1" stop-color="#565352" stop-opacity="0"/>
</linearGradient>
<linearGradient id="paint1_linear_1622_14462" x1="180.441" y1="115.223" x2="197.93" y2="160.194" gradientUnits="userSpaceOnUse">
<stop stop-color="#565352"/>
<stop offset="1" stop-color="#565352" stop-opacity="0"/>
</linearGradient>
<clipPath id="clip0_1622_14462">
<rect width="360" height="160" fill="white"/>
</clipPath>
</defs>
</svg>
