<svg width="24" height="24" viewBox="0 0 24 24" fill="none" xmlns="http://www.w3.org/2000/svg">
<path d="M22.24 12.2418C22.24 11.4859 22.1724 10.7591 22.0459 10.0608H12V14.1867H17.7408C17.4933 15.52 16.7417 16.6499 15.6124 17.4059V20.0825H19.0592C21.0766 18.2258 22.24 15.4901 22.24 12.2418Z" fill="#4285F4"/>
<path d="M12 22.6666C14.88 22.6666 17.2942 21.7116 19.0592 20.0824L15.6124 17.4058C14.6567 18.0458 13.435 18.4241 12 18.4241C9.22166 18.4241 6.87002 16.5475 6.03162 14.0266H2.46753V16.79C4.22326 20.2773 7.83002 22.6666 12 22.6666Z" fill="#34A853"/>
<path d="M6.03162 14.0267C5.81829 13.3867 5.6974 12.7033 5.6974 12C5.6974 11.2967 5.81829 10.6133 6.03162 9.97334V7.20996H2.46754C1.72102 8.69632 1.3326 10.3367 1.33331 12C1.33331 13.7209 1.74576 15.35 2.46754 16.7901L6.03162 14.0267Z" fill="#FBBC05"/>
<path d="M12 5.57574C13.5658 5.57574 14.9724 6.11405 16.0775 7.17076L19.1367 4.11156C17.2906 2.39067 14.875 1.33325 12 1.33325C7.83002 1.33325 4.22326 3.7233 2.46753 7.20987L6.03162 9.97325C6.87073 7.45236 9.22166 5.57574 12 5.57574Z" fill="#EA4335"/>
</svg>
