<svg width="24" height="24" viewBox="0 0 24 24" fill="none" xmlns="http://www.w3.org/2000/svg">
<path d="M16.1991 6.16391C17.6014 6.16391 19.0862 6.93262 20.1422 8.25742C16.6791 10.1675 17.2402 15.1438 20.7396 16.4764C20.2581 17.5502 20.027 18.0281 19.4069 18.9788C18.5415 20.3051 17.3227 21.957 15.8094 21.9691C14.4669 21.9833 14.1213 21.0894 12.2987 21.0994C10.4761 21.1086 10.0964 21.984 8.75095 21.9712C7.23984 21.9584 6.08428 20.4672 5.21815 19.141C2.80037 15.4361 2.54437 11.0848 4.03699 8.77084C5.09868 7.12746 6.77264 6.16675 8.3449 6.16675C9.94561 6.16675 10.9533 7.04995 12.2788 7.04995C13.5652 7.04995 14.3481 6.16391 16.1991 6.16391ZM15.7938 1.33333C15.9787 2.58702 15.4688 3.81511 14.7954 4.68266C14.0757 5.61564 12.8334 6.33671 11.6309 6.29902C11.4126 5.09866 11.9744 3.86275 12.6585 3.03075C13.408 2.11342 14.6937 1.40942 15.7945 1.33333H15.7938Z" fill="white" fill-opacity="0.85"/>
</svg>
