<svg width="90" height="90" viewBox="0 0 90 90" fill="none" xmlns="http://www.w3.org/2000/svg">
<path d="M66.6296 64.949C51.5731 53.414 53.2472 43.4059 53.052 39.2892H62.2338C63.3122 37.2876 63.8566 35.4305 63.8566 33.1193L53.4423 26.2272C57.0575 23.5962 59.4197 19.3248 59.4197 14.4962C59.4197 8.41914 55.6915 3.20878 50.4023 1.06273C48.7282 0.381771 36.9377 39.2892 36.9377 39.2892C36.8966 40.1765 36.8863 41.3527 36.8863 42.7456C36.8863 46.6147 46.3454 46.0266 45.8422 49.4417C45.0822 54.5489 44.9281 58.4283 40.5529 70.6855C37.595 78.9602 17.9065 70.6855 16.4995 74.7506C15.5238 77.5776 15 80.7451 15 84.1602C15 84.5214 15.7908 90 45 90C74.2092 90 75 84.5214 75 84.1602C75 75.8443 71.9086 68.9831 66.6399 64.949H66.6296Z" fill="#DC501D"/>
<path d="M44.4659 70.1281C46.0886 62.7098 47.5265 54.7962 48.4098 50.0605C49.4984 44.1485 40.5631 43.0858 36.8966 42.5493C36.7322 47.5946 35.3252 55.797 23.3601 64.959C20.1352 67.4249 17.7319 70.9638 16.3454 75.2353C19.5703 76.8139 23.8839 77.7631 30.5289 77.7631C34.7911 77.7631 42.6788 78.279 44.4659 70.1488V70.1281Z" fill="#FA742C"/>
<path d="M50.741 39.2892C52.1583 35.5955 51.9734 33.1193 51.9734 33.1193L46.0782 26.2272C52.3534 23.5343 56.1227 18.489 56.1227 12.5977C56.1227 7.90324 53.894 3.72463 50.4431 1.07302C48.7588 0.381749 46.9306 0 44.9998 0C37.0299 0 30.5801 6.48974 30.5801 14.4858C30.5801 19.3144 32.9423 23.5859 36.5575 26.2169L26.1432 33.109C26.1432 35.4201 26.6876 37.2773 27.766 39.2789H50.741V39.2892Z" fill="#FA742C"/>
<path d="M44.1784 2.96119C52.4974 4.2612 40.3475 13.9597 36.5166 13.4954C32.8706 13.0621 36.3831 1.74372 44.1784 2.96119Z" fill="#FFA459"/>
<path d="M51.9288 70.8359L59.2688 72.0573C59.6128 72.0573 56.4131 67.5731 51.2694 67.3494C47.8518 67.1659 48.5513 70.8359 51.9288 70.8359Z" fill="#FA742C"/>
<path d="M62.1188 69.2073L66.1959 70.0215C66.54 70.0215 64.5674 65.5373 61.4536 65.7208C59.2631 65.9445 59.6703 68.8001 62.1188 69.2073Z" fill="#FA742C"/>
<path d="M62.5776 74.3398C64.7911 77.7059 66.477 83.5033 63.0077 89.0541C64.556 88.8763 65.8003 88.5839 67.0217 88.366C67.2224 84.9311 66.9701 78.1016 62.5776 74.3398Z" fill="#7A1A0B"/>
</svg>
