<svg width="40" height="40" viewBox="0 0 40 40" fill="none" xmlns="http://www.w3.org/2000/svg">
<g id="white_pawn" clip-path="url(#clip0_1640_16477)">
<path id="Vector" d="M20.0478 2.26556C16.2589 2.26556 13.1789 5.34556 13.1789 9.13444C13.1789 11.2489 14.1444 13.2289 15.7822 14.5244L12.2133 16.8711L11.9444 17.0422V17.3722C11.9444 18.35 12.1767 18.79 12.5433 19.4378L12.6656 19.6578L12.8367 19.9756H16.21C16.0633 21.65 15.5989 25.8544 10.2211 29.24C7.81333 30.7556 6.43222 33.6278 6.43222 37.1356V37.7344H33.6633V37.1356C33.6633 33.64 32.2822 30.7556 29.8744 29.24C24.5089 25.8667 24.0444 21.65 23.8856 19.9756H27.2589L27.43 19.6578L27.5522 19.4378C27.9067 18.7778 28.1511 18.35 28.1511 17.3722V17.0422L27.8822 16.8711L24.3133 14.5244C25.9633 13.2289 26.9289 11.2489 26.9289 9.13444C26.9289 5.34556 23.8489 2.26556 20.06 2.26556H20.0478Z" fill="#E8E6E1"/>
<path id="Vector_2" d="M15.5622 17.3722C15.7578 16.04 16.8089 14.5611 16.8456 14.5367L11.8222 17.3722H15.5622Z" fill="white"/>
<path id="Vector_3" d="M20.6711 2.88889C18.2633 3.10889 14.4378 5.96889 13.9978 11.8844C13.9978 11.8844 11.5778 8.40111 14.9144 4.56334C17.5422 1.54445 20.6711 2.88889 20.6711 2.88889Z" fill="white"/>
<path id="Vector_4" d="M7.03111 37.1356C8.33889 32.8578 10.1722 32.2956 13.57 29.8267C15.8189 28.1889 16.1244 23.2267 16.1244 23.2267C16.1733 22.97 14.9756 25.2189 13.6922 26.3311C13.2767 26.6978 10.4044 28.6778 9.18222 29.9733C7.05556 32.2222 6.77444 37.9422 7.01889 37.1233L7.03111 37.1356Z" fill="white"/>
<path id="Vector_5" d="M27.5889 27.7611C24.3622 25.5122 24.1544 21.1244 23.9467 20.1222H27.1856L28.3467 17.4333C28.3467 17.4333 24.9367 14.6589 23.2744 14.5978H24.0933C24.0933 14.5978 26.55 12.5567 26.77 10.7478C27.6133 3.54889 21.9422 2.58334 21.9422 2.58334C24.5089 3.86667 26.4522 8.24222 24.1422 11.5056C22.4922 13.84 19.2656 14.5367 19.2656 14.5367H23.25C23.25 14.5367 26.0611 17.5311 23.2133 19.3767H12.6167L12.7511 20.1222H16.1733C16.1733 20.1222 20.1333 24.1311 23.4211 27.2233C26.5744 30.1933 31.3533 30.6089 31.3533 30.6089C31.3533 30.6089 29.2267 28.8978 27.5889 27.7489V27.7611Z" fill="#B3ACA8"/>
<path id="Vector_6" d="M20.0478 2.86444C23.5067 2.86444 26.3178 5.67555 26.3178 9.13444C26.3178 11.2122 25.2911 13.1556 23.5678 14.3289L23.2378 14.5489L27.5278 17.3844C27.5278 18.3011 27.3078 18.5944 26.88 19.3889H23.2011L23.2378 19.6822C23.3844 21.0511 23.4822 25.9522 29.5444 29.7533C31.7689 31.1589 33.0522 33.8478 33.0522 37.1356H7.03111C7.03111 33.8478 8.31445 31.1467 10.5389 29.7533C16.6133 25.94 16.6989 21.0389 16.8456 19.6822L16.8822 19.3889H13.2033C12.7756 18.5944 12.5556 18.3011 12.5556 17.3844L16.8456 14.5489L16.5156 14.3289C14.7922 13.1556 13.7778 11.2244 13.7778 9.13444C13.7778 5.67555 16.5889 2.86444 20.0478 2.86444ZM20.0478 1.66666C15.9289 1.66666 12.58 5.01555 12.58 9.13444C12.58 11.1511 13.3989 13.07 14.8044 14.4511L11.8956 16.37L11.3578 16.7244V17.3722C11.3578 18.5089 11.6511 19.0467 12.03 19.7311L12.14 19.9389L12.4822 20.5622H15.55C15.3056 22.4322 14.4378 25.8789 9.90334 28.7267C7.31222 30.3522 5.83334 33.4078 5.83334 37.1233V38.3211H34.2622V37.1233C34.2622 33.4078 32.7833 30.3522 30.1922 28.7267C25.67 25.8911 24.79 22.4322 24.5456 20.5622H27.6133L27.9556 19.9389L28.0656 19.7311C28.4444 19.0467 28.7378 18.4967 28.7378 17.3722V16.7244L28.2 16.37L25.2911 14.4511C26.7089 13.0578 27.5156 11.1511 27.5156 9.13444C27.5156 5.01555 24.1667 1.66666 20.0478 1.66666Z" fill="#383532"/>
</g>
<defs>
<clipPath id="clip0_1640_16477">
<rect width="40" height="40" fill="white"/>
</clipPath>
</defs>
</svg>
