<svg width="40" height="40" viewBox="0 0 40 40" fill="none" xmlns="http://www.w3.org/2000/svg">
<g clip-path="url(#clip0_1646_8895)">
<path d="M25.0234 2.17999C22.97 2.17999 21.2956 3.85444 21.2956 5.90777C21.2956 6.99555 21.8211 8.04666 22.6767 8.69444L19.78 17.0667L16.8834 8.69444C17.7389 8.04666 18.2645 6.99555 18.2645 5.90777C18.2645 3.85444 16.59 2.17999 14.5367 2.17999C12.4834 2.17999 10.8089 3.81777 10.8089 5.90777C10.8089 7.47221 11.7745 8.81666 13.1556 9.26888L12.6911 19.1444L8.68225 14.8667C8.92669 14.4755 9.25669 13.8155 9.25669 13.0944C9.25669 11.2 7.61891 9.53777 5.74891 9.53777C4.79558 9.53777 3.90336 9.90444 3.23113 10.5767C2.55891 11.2489 2.19225 12.1411 2.19225 13.0944C2.19225 14.7689 3.58558 16.37 5.1378 16.5778L11.0167 30.7189C6.82447 31.5011 6.83669 34.0189 6.83669 36.9155V37.3311V37.8444H32.7234V36.9278C32.7234 34.0311 32.7356 31.5133 28.5434 30.7311L34.4222 16.59C35.9867 16.3822 37.38 14.7811 37.38 13.1067C37.38 11.1511 35.7789 9.54999 33.8234 9.54999C31.8678 9.54999 30.3156 11.2122 30.3156 13.1067C30.3156 13.8278 30.6456 14.4878 30.89 14.8789L26.8689 19.1567L26.4045 9.2811C27.7734 8.82888 28.7511 7.45999 28.7511 5.93221C28.7511 3.84221 27.1134 2.20444 25.0234 2.20444V2.17999Z" fill="#E8E6E1"/>
<path d="M6.48225 10.0022C5.26002 10.1122 3.36558 11.4933 2.9378 14.2922C2.91336 14.4878 1.54447 13.0211 3.35336 10.9189C4.77113 9.26888 6.49447 9.98999 6.49447 9.98999L6.48225 10.0022Z" fill="white"/>
<path d="M34.63 10.0022C33.4078 10.1122 31.5134 11.4933 31.0856 14.2922C31.0489 14.4878 29.6922 13.0211 31.5011 10.9189C32.9311 9.26888 34.6422 9.98999 34.6422 9.98999L34.63 10.0022Z" fill="white"/>
<path d="M15.1845 2.71778C13.8767 2.85222 11.8111 4.45333 11.6156 7.68C11.6156 7.68 10.2711 5.79778 12.0556 3.68333C13.4611 2.00889 15.1845 2.71778 15.1845 2.71778Z" fill="white"/>
<path d="M25.61 2.71778C24.3022 2.85222 22.2367 4.45333 22.0411 7.68C22.0411 7.68 20.6967 5.79778 22.4811 3.68333C23.8867 2.00889 25.61 2.71778 25.61 2.71778Z" fill="white"/>
<path d="M19.9267 32.1978C30.9022 32.1978 32.0511 33.4078 32.0511 33.4078H32.1978C31.7089 30.8167 25.9522 30.5233 25.9522 30.5233H13.9378C13.9378 30.5233 7.98558 30.7311 7.65558 33.4078H7.80225C7.80225 33.4078 8.93891 32.1978 19.9267 32.1978Z" fill="white"/>
<path d="M7.04447 10.2833C8.40114 12.0189 6.06669 13.5467 7.36225 14.9522L13.2778 20.4278L8.84114 14.5489C8.84114 14.5489 9.40336 13.1067 9.04891 12.0556C8.25447 9.68444 7.03225 10.2711 7.03225 10.2711L7.04447 10.2833Z" fill="#B3ACA8"/>
<path d="M26.4045 25.7078C22.3956 30.0467 18.4111 29.9122 18.4111 29.9122L28.5434 30.7067L34.4834 16.6633C34.4834 16.6633 35.8645 16.5044 36.8911 14.7933C38.4189 12.2633 35.4856 10.4422 35.4856 10.4422C36.4022 11.5055 36.2678 13.29 35.4856 14.0111C34.74 14.7078 33.4811 14.8544 33.0167 15.9178C33.0167 15.9178 30.23 21.5767 26.4045 25.72V25.7078Z" fill="#B3ACA8"/>
<path d="M26.5756 2.88889C28.5189 5.57777 24.8156 6.44555 25.0478 8.90222L26.5145 20.3789V9.40333C26.5145 9.40333 29.0934 7.85111 28.8611 5.98111C28.5067 3.06 26.5878 2.90111 26.5878 2.90111L26.5756 2.88889Z" fill="#B3ACA8"/>
<path d="M15.3189 8.53555L19.8656 18.6433L16.9689 8.80444C16.9689 8.80444 18.0811 7.19111 18.0811 5.78555C18.0811 3.21888 15.93 2.71777 15.93 2.71777C18.0078 5.50444 14.5122 6.10333 15.3311 8.53555H15.3189Z" fill="#B3ACA8"/>
<path d="M19.78 30.67C22.7867 30.67 25.4511 30.7922 27.7734 31.0978C28.2622 31.1589 28.7022 31.2445 29.0934 31.3422L29.2645 30.34C28.8611 30.2422 28.3967 30.1567 27.9078 30.0956C25.6345 29.8022 22.97 29.6678 19.78 29.6678C16.59 29.6678 13.9378 29.8022 11.6522 30.0956C11.1267 30.1567 10.65 30.2545 10.2345 30.3645L10.4422 31.3667C10.8334 31.2689 11.2856 31.1833 11.7867 31.1222C14.1089 30.8289 16.7734 30.6945 19.78 30.6945V30.67Z" fill="#383532"/>
<path d="M25.0234 2.68112C26.8445 2.68112 28.2378 4.07445 28.2378 5.89556C28.2378 7.42334 27.15 8.63334 25.8667 8.85334L26.4167 20.3422L31.5378 14.8789C31.5378 14.8789 30.8167 14.0111 30.8167 13.0578C30.8167 11.3711 32.2956 10.0144 33.8234 10.0144C35.51 10.0144 36.8667 11.3711 36.8667 13.0578C36.8667 14.6222 35.4734 16.0644 34.08 16.0644L27.8345 31.0856C32.43 31.6844 32.2222 33.97 32.2222 37.2944H7.33781C7.33781 33.97 7.13003 31.6844 11.7256 31.0856L5.48003 16.0767C4.08669 16.0767 2.69336 14.6344 2.69336 13.07C2.69336 11.3833 4.05003 10.0267 5.73669 10.0267C7.26447 10.0267 8.74336 11.3833 8.74336 13.07C8.74336 14.0111 8.02225 14.8911 8.02225 14.8911L13.1434 20.3544L13.6934 8.86556C12.3856 8.63334 11.3223 7.42334 11.3223 5.90778C11.3223 4.08667 12.7156 2.69334 14.5367 2.69334C16.2234 2.69334 17.7511 4.05 17.7511 5.90778C17.7511 6.97112 17.1522 7.98556 16.2722 8.48667L19.78 18.6189L23.2878 8.48667C22.3956 7.97334 21.8089 6.95889 21.8089 5.90778C21.8089 4.05 23.3367 2.69334 25.0234 2.69334M25.0234 1.67889C22.6889 1.67889 20.7945 3.57334 20.7945 5.90778C20.7945 7.02 21.2834 8.10778 22.09 8.85334L19.78 15.5022L17.47 8.85334C18.2767 8.10778 18.7656 7.02 18.7656 5.90778C18.7656 3.57334 16.8711 1.67889 14.5367 1.67889C12.2022 1.67889 10.3078 3.53667 10.3078 5.90778C10.3078 7.55778 11.2489 8.98778 12.6422 9.61111L12.2511 17.91L9.31781 14.7811C9.55003 14.3411 9.77003 13.7422 9.77003 13.0822C9.77003 10.9189 7.88781 9.01223 5.74892 9.01223C3.61003 9.01223 1.67892 10.8333 1.67892 13.0822C1.67892 14.9278 3.08447 16.6389 4.77114 17.0178L10.3078 30.3278C6.31114 31.3178 6.32336 34.0311 6.32336 36.9033V37.3189V38.3333H33.2367V36.9033C33.2367 34.0433 33.2489 31.3178 29.2522 30.3278L34.7889 17.0178C36.4878 16.6267 37.8811 14.9278 37.8811 13.0822C37.8811 10.8456 36.06 9.01223 33.8111 9.01223C31.5622 9.01223 29.79 10.9067 29.79 13.0822C29.79 13.73 30.01 14.3289 30.2422 14.7811L27.3089 17.91L26.9178 9.59889C28.2989 8.97556 29.2522 7.52112 29.2522 5.90778C29.2522 3.53667 27.3945 1.67889 25.0234 1.67889Z" fill="#383532"/>
</g>
<defs>
<clipPath id="clip0_1646_8895">
<rect width="40" height="40" fill="white"/>
</clipPath>
</defs>
</svg>
