<svg width="40" height="40" viewBox="0 0 40 40" fill="none" xmlns="http://www.w3.org/2000/svg">
<g clip-path="url(#clip0_1646_8882)">
<path d="M20.3167 2.21667C19.1189 2.21667 17.7622 2.43667 17.6889 2.44889L17.2856 2.49778L17.2244 2.88889L16.7111 7.53333H14.2789L13.4111 3.48778L13.2767 3.12111H12.8856C11.4311 3.12111 10.0622 3.46333 8.80333 4.14778L8.48555 4.31889L8.51 4.67333L8.96222 10.21V10.2344C9.23111 12.2144 10.2456 13.4489 12.2378 14.1822C11.9567 16.5411 10.6611 27.6022 10.3311 30.23C6.34667 31.1711 6.35889 33.7867 6.35889 36.7933V37.2456V37.7956H34.2378V36.8056C34.2378 33.7989 34.25 31.1833 30.2656 30.2422C29.9356 27.6144 28.64 16.5533 28.3589 14.1944C30.3511 13.4611 31.3656 12.2267 31.6344 10.2467V10.2222L32.0867 4.68556L32.1111 4.33111L31.7933 4.16C30.5344 3.47556 29.1656 3.13333 27.7111 3.13333H27.32L27.1978 3.5L26.33 7.54556H23.8978L23.3844 2.90111L23.3111 2.51L22.92 2.46111C22.8467 2.46111 21.49 2.22889 20.2922 2.22889L20.3167 2.21667Z" fill="#E8E6E1"/>
<path d="M20.3167 31.7333C32.1356 31.7333 33.37 33.0411 33.37 33.0411H33.5289C33.0033 30.2544 26.8067 29.9367 26.8067 29.9367H13.8878C13.8878 29.9367 7.47111 30.1567 7.11667 33.0411H7.27556C7.27556 33.0411 8.49778 31.7333 20.3289 31.7333H20.3167Z" fill="white"/>
<path d="M12.0911 3.19445C9.14555 5.21111 10.2456 12.7644 10.2456 12.7644C8.36333 12.1656 8.41222 4.06222 8.41222 4.06222C8.41222 4.06222 12.9344 2.62 12.0911 3.19445Z" fill="white"/>
<path d="M21.1967 2.59556C17.9089 3.19445 16.6378 7.98556 16.6378 7.98556C16.4422 6.25 17.6033 2.35111 17.6033 2.35111C17.6033 2.35111 22.1378 2.42445 21.1967 2.59556Z" fill="white"/>
<path d="M29.9722 3.58556C27.8456 4.71 26.1956 7.98556 26.1956 7.98556C26.1956 6.55556 27.6989 2.77889 27.6989 2.77889C27.6989 2.77889 30.7667 3.17 29.9722 3.58556Z" fill="white"/>
<path d="M29.6178 13.5467C32.5267 13.62 32.0133 4.55111 32.0133 4.55111L30.2656 3.43889C29.7889 6.33556 29.1656 10.8211 27.7478 12.0678C26.4522 13.2044 25.67 13.4733 25.4744 13.5222C25.0956 13.4733 24.6922 13.4244 24.2522 13.3878C20.2678 13.0333 14.4744 14.17 14.4744 14.17C14.4744 14.17 20.3411 13.8156 23.3356 17.58C26.3178 21.32 26.6356 29.4844 26.6356 29.4844C28.6033 29.8511 30.07 30.2544 30.07 30.2544L28.2244 14.4878C28.2244 14.4878 29.2267 13.5467 29.6178 13.5589V13.5467Z" fill="#B3ACA8"/>
<path d="M12.3844 14.2189C15.2567 13.8033 18.4833 13.51 20.3167 13.51C22.15 13.51 25.34 13.7911 28.2 14.2067" stroke="#383532" stroke-width="0.9" stroke-miterlimit="10"/>
<path d="M20.3167 2.76666C21.49 2.76666 22.8711 2.99889 22.8711 2.99889L23.4578 8.09555H26.7456L27.7478 3.68333C29.1167 3.68333 30.3878 4.00111 31.5733 4.63666L31.1211 10.1611C30.8889 11.8478 30.1189 13.07 27.7967 13.8033C27.7967 13.8033 29.5689 28.8611 29.8011 30.67C33.92 31.4767 33.7122 33.8478 33.7122 37.2211H6.93334C6.93334 33.8478 6.73778 31.4767 10.8444 30.67C11.0889 28.8489 12.8489 13.8033 12.8489 13.8033C10.5267 13.07 9.74445 11.8478 9.52445 10.1611L9.07223 4.63666C10.2578 4.00111 11.5289 3.68333 12.8978 3.68333L13.9 8.09555H17.1878L17.7744 2.99889C17.7744 2.99889 19.1433 2.76666 20.3289 2.76666M20.3289 1.66666C19.0822 1.66666 17.6644 1.89889 17.6033 1.91111L16.7844 2.04555L16.6867 2.86444L16.21 6.99555H14.78L13.9733 3.43889L13.7778 2.58333H12.8978C11.3578 2.58333 9.89111 2.95 8.54667 3.67111L7.91111 4.01333L7.97223 4.72222L8.42445 10.2467C8.70556 12.3611 9.72 13.7056 11.6511 14.5367C11.3089 17.4333 10.2089 26.7956 9.84223 29.79C5.82111 30.9144 5.83334 33.8967 5.83334 36.7933V37.2333V38.3333H34.8122V36.7933C34.8122 33.8967 34.8244 30.9144 30.7911 29.79C30.4244 26.8078 29.3244 17.4333 28.9822 14.5367C30.9256 13.7056 31.9278 12.3733 32.2089 10.3078L32.6733 4.72222L32.7344 4.00111L32.0989 3.65889C30.7544 2.93778 29.3 2.57111 27.7478 2.57111H26.8678L26.6722 3.42666L25.8656 6.98333H24.4356L23.9589 2.85222L23.8611 2.03333L23.0422 1.89889C23.0422 1.89889 21.5633 1.65444 20.3167 1.65444L20.3289 1.66666Z" fill="#383532"/>
<path d="M20.3167 30.0833C23.5556 30.0833 26.4156 30.2178 28.9211 30.5356C29.4467 30.5967 29.9233 30.6944 30.3389 30.7922L30.5222 29.7044C30.0822 29.5944 29.5933 29.5089 29.0556 29.4356C26.5989 29.1178 23.7389 28.9711 20.3044 28.9711C16.87 28.9711 14.01 29.1178 11.5533 29.4356C10.9911 29.5089 10.4778 29.6067 10.0256 29.7167L10.2456 30.7922C10.6733 30.6822 11.15 30.5967 11.6878 30.5233C14.1933 30.2056 17.0656 30.0711 20.2922 30.0711L20.3167 30.0833Z" fill="#383532"/>
</g>
<defs>
<clipPath id="clip0_1646_8882">
<rect width="40" height="40" fill="white"/>
</clipPath>
</defs>
</svg>
