<svg width="40" height="40" viewBox="0 0 40 40" fill="none" xmlns="http://www.w3.org/2000/svg">
<g clip-path="url(#clip0_1646_8869)">
<path d="M16.7456 2.18H16.5378C15.8411 2.18 15.1567 2.80333 14.9733 3.61L14.6067 5.35778C14.2644 6.15222 13.7022 6.71444 12.7978 7.47222C11.7833 8.30333 11.4656 9.13444 11.2578 9.68444L11.2211 9.79444C10.9889 10.3811 10.8178 10.8822 10.6711 11.3344C10.3044 12.4344 10.0233 13.29 9.11889 14.5978L6.16111 18.7656C5.24444 19.9144 5.34222 21.5033 6.39333 22.3956C7.45666 23.3 10.06 23.9967 10.94 23.9967C11.1233 23.9967 11.3678 23.9722 11.5511 23.8011C11.9544 23.41 12.2233 22.9822 12.4922 22.5667C13.0789 21.65 13.5067 20.99 15.01 20.9778C17.2344 20.9778 19.1533 18.9489 20.07 17.9833V17.9711L20.62 17.3233C20.9867 17.9222 21.4144 18.8878 21.1333 19.89C21.0111 20.3178 20.8156 20.7089 20.5467 21.1122C20.0211 21.87 19.2633 22.5422 18.5056 23.1533L18.4567 23.19C16.5378 24.7422 13.3844 27.2967 12.8467 30.89C9.46111 31.8189 9.46111 34.1778 9.47333 36.9033V37.3189V37.8322H35.2989V36.9156C35.2989 34.2022 35.3111 31.8311 31.9256 30.9022C32.0356 30.4989 32.1822 29.9733 32.3411 29.3989C33.0133 27.0522 33.93 23.8256 33.93 21.7233C33.93 16.7489 32.3533 12.5689 29.3833 9.64778C26.9267 7.22778 23.6144 5.74889 20.0333 5.46778L16.88 2.32667L16.7333 2.18H16.7456Z" fill="#E8E6E1"/>
<path d="M22.5022 32.2222C33.4533 32.2222 34.59 33.4322 34.59 33.4322H34.7367C34.2478 30.8411 28.5033 30.56 28.5033 30.56H16.5256C16.5256 30.56 10.5856 30.7678 10.2556 33.4322H10.4022C10.4022 33.4322 11.5389 32.2222 22.49 32.2222H22.5022Z" fill="white"/>
<path d="M15.8656 7.25222C17.9189 5.98111 16.5256 2.68111 16.5256 2.68111C15.9633 2.68111 15.4133 3.01111 15.2544 3.69556L14.8878 5.45556C14.5333 6.31111 13.9467 6.91 12.9933 7.69222C12.04 8.48667 11.7467 9.24444 11.5267 9.79445L11.49 9.90444C11.27 10.4789 11.0989 10.9678 10.9522 11.4322C10.5856 12.5444 10.2922 13.4244 9.37555 14.7689L6.41778 18.9367C6.41778 18.9367 6.34444 19.0222 6.30778 19.0589C5.35444 20.0489 6.06333 21.0267 6.06333 21.0267C6.06333 21.0267 10.9033 15.0622 11.5267 14.2189C12.6633 12.7033 11.9544 9.69667 15.89 7.25222H15.8656Z" fill="white"/>
<path d="M16.1589 9.68444C14.8267 10.2222 14.4722 12.5078 14.4722 12.5078C15.7678 11.3833 16.3911 12.6667 17.6744 11.6522C18.75 10.8089 17.4667 9.15889 16.1589 9.68444Z" fill="#383532"/>
<path d="M22.2822 13.8278C21.8178 14.72 20.6689 16.5167 20.6689 16.5167C20.6689 16.5167 20.5467 16.8833 20.4 17.3967C20.4 17.3967 20.9256 17.3356 21.0233 19.0222C21.0478 19.4622 21.2556 20.99 21.5367 20.3422C22.3189 18.4478 22.8567 16.1622 22.8444 15.38C22.8444 14.5978 22.7344 12.9356 22.2822 13.8278Z" fill="#B3ACA8"/>
<path d="M19.8133 5.95667C19.8133 5.95667 30.19 7.24 30.19 17.1767C30.19 23.8256 25.7656 25.6833 24.6044 30.1444C24.6044 30.1444 29.5178 30.1811 31.6933 31.2078C31.6933 31.2078 34.0278 24.8889 34.0278 21.1489C34.0278 17.4089 31.1189 5.66333 19.8133 5.95667Z" fill="#B3ACA8"/>
<path d="M15.9878 20.4644C13.6656 19.3278 13.0911 17.9711 12.1989 20.6478C11.3311 23.2389 10.0233 23.6789 10.9033 23.9478C11.7833 24.2167 12.8711 21.2833 13.6411 21.2467C14.4111 21.1978 16.8556 20.8922 15.9878 20.4767V20.4644Z" fill="#B3ACA8"/>
<path d="M16.5256 2.68111L19.8133 5.95667C26.2422 6.39667 33.4289 11.0656 33.4289 21.7111C33.4289 24.5344 31.6444 29.7167 31.3267 31.2689C34.9811 32.0389 34.81 34.2267 34.81 37.3067H9.99889C9.99889 34.2633 9.82778 32.1 13.3233 31.2933C13.6778 27.6878 16.9656 25.06 18.8478 23.5444C19.7156 22.8356 20.4611 22.1633 20.9867 21.3933C21.28 20.9656 21.5 20.5256 21.6344 20.0244C22.0989 18.4111 21.0478 16.9567 20.6689 16.4922L19.6911 17.6167C18.7133 18.6433 16.9656 20.44 14.9978 20.4522C12.4433 20.4522 12.3822 22.2489 11.1844 23.41C11.1478 23.4467 11.05 23.4589 10.9278 23.4589C10.0967 23.4589 7.64 22.7744 6.71111 21.98C5.89223 21.2833 5.78223 19.9878 6.55223 19.0467L9.52223 14.8544C10.8544 12.9233 10.9156 11.8967 11.6733 9.94111C11.8933 9.39111 12.1378 8.63333 13.1033 7.82667C14.0689 7.02 14.7044 6.39667 15.0833 5.46778L15.4622 3.68333C15.5844 3.13333 16.0733 2.64444 16.5378 2.64444M16.9533 1.63H16.5378C15.5967 1.63 14.7167 2.41222 14.4722 3.46333L14.1178 5.17444C13.8122 5.85889 13.3233 6.34778 12.4678 7.05667C11.3556 7.97333 11.0011 8.87778 10.7811 9.47667L10.7444 9.58667C10.5122 10.1856 10.3411 10.6989 10.1822 11.1633C9.81556 12.2633 9.55889 13.0578 8.69111 14.3044L5.74556 18.4478C4.65778 19.8044 4.79223 21.6989 6.05111 22.7744C7.22445 23.7644 9.95 24.4978 10.9278 24.4978C11.0867 24.4978 11.5511 24.4978 11.8933 24.1556C12.3333 23.7278 12.6389 23.2511 12.9078 22.8356C13.4578 21.9678 13.7633 21.4911 15.01 21.4911C17.4544 21.4789 19.4711 19.3644 20.4367 18.3378L20.5344 18.2278C20.7178 18.68 20.8156 19.2178 20.6567 19.7556C20.5589 20.1222 20.3878 20.4767 20.1433 20.8311C19.6667 21.54 18.9211 22.1756 18.2 22.7622L18.1389 22.8111C16.2322 24.3633 13.1033 26.8933 12.4067 30.4989C8.96 31.5989 8.96 34.3 8.97223 36.9033V37.3067V38.3211H35.8122V36.8911C35.8122 34.3244 35.8244 31.6722 32.5489 30.5356C32.6344 30.23 32.7322 29.8878 32.83 29.5211C33.5022 27.1378 34.4311 23.8867 34.4311 21.6989C34.4311 10.9922 27.3789 5.61444 20.2533 4.95444L17.2467 1.96L16.9533 1.66667V1.63Z" fill="#383532"/>
<path d="M22.4044 30.6944C25.3989 30.6944 28.0633 30.8167 30.3733 31.1222C30.8622 31.1833 31.3022 31.2689 31.6811 31.3667L31.8522 30.3644C31.4489 30.2667 30.9967 30.1811 30.4956 30.12C28.2222 29.8267 25.57 29.6922 22.3922 29.6922C19.2144 29.6922 16.5622 29.8267 14.2889 30.12C13.7633 30.1811 13.2989 30.2789 12.8711 30.3889L13.0789 31.3789C13.47 31.2811 13.9222 31.1956 14.4233 31.1344C16.7456 30.8411 19.3978 30.7067 22.3922 30.7067L22.4044 30.6944Z" fill="#383532"/>
</g>
<defs>
<clipPath id="clip0_1646_8869">
<rect width="40" height="40" fill="white"/>
</clipPath>
</defs>
</svg>
